<?xml version="1.0" encoding="utf-8"?>
<!-- Generator: Adobe Illustrator 24.3.0, SVG Export Plug-In . SVG Version: 6.00 Build 0)  -->
<svg version="1.1" id="Layer_1" xmlns="http://www.w3.org/2000/svg" xmlns:xlink="http://www.w3.org/1999/xlink" x="0px" y="0px"
	 viewBox="0 0 66.8 54.2" style="enable-background:new 0 0 66.8 54.2;" xml:space="preserve">
<style type="text/css">
	.st0{opacity:0.2;}
	.st1{fill:#7B85A0;}
</style>
<g class="st0">
	<path class="st1" d="M0,48.8c6.1-4.7,10.5-9.1,13.1-13.3S17,26.7,17,21.6c-1.7,1.1-3.7,1.6-6,1.6c-3.1,0-5.6-1-7.5-3.1
		c-1.9-2.1-2.9-4.7-2.9-7.9c0-3.6,1.2-6.5,3.7-8.8C6.8,1.1,10.1,0,14.2,0c9.5,0,14.2,6.3,14.2,18.8c0,3.5-0.4,6.6-1.2,9.4
		c-0.8,2.8-2.1,5.6-3.9,8.3c-1.8,2.7-4.2,5.5-7.3,8.4c-3.1,2.9-6.9,6-11.4,9.3L0,48.8z M38.4,48.8c6.1-4.7,10.5-9.1,13.1-13.3
		c2.6-4.2,3.9-8.8,3.9-13.9c-1.7,1.1-3.7,1.6-6,1.6c-3.1,0-5.6-1-7.5-3.1C40,18,39,15.4,39,12.2c0-3.6,1.2-6.5,3.7-8.8
		C45.2,1.1,48.5,0,52.6,0c9.5,0,14.2,6.3,14.2,18.8c0,3.5-0.4,6.6-1.2,9.4c-0.8,2.8-2.1,5.6-3.9,8.3c-1.8,2.7-4.2,5.5-7.3,8.4
		c-3.1,2.9-6.9,6-11.4,9.3L38.4,48.8z"/>
</g>
</svg>
